<svg width="941" height="174" viewBox="0 0 941 174" fill="none" xmlns="http://www.w3.org/2000/svg">
<path d="M152.447 6.15935e-05L188.53 36.082L51.5287 173.086L15.4459 137.004L152.447 6.15935e-05Z" fill="#C39DF9"/>
<path d="M30.8917 152.451L116.165 67.178L136.8 87.8132L51.5268 173.086L30.8917 152.451Z" fill="#6D46AA"/>
<path d="M15.4453 137.006L73.3176 79.1335L93.9528 99.7687L36.0804 157.641L15.4453 137.006Z" fill="#9565DB"/>
<path d="M-6.3179e-06 121.56L40.3283 81.2317L60.9634 101.867L20.635 142.195L-6.3179e-06 121.56Z" fill="#C39DF9"/>
<path d="M250.837 155.236C241.438 152.375 234.004 148.581 228.53 143.85L236.93 124.996C242.279 129.229 248.844 132.683 256.623 135.355C264.399 138.033 272.21 139.37 280.049 139.37C289.757 139.37 297.005 137.815 301.796 134.704C306.585 131.594 308.983 127.487 308.983 122.383C308.983 118.649 307.644 115.571 304.97 113.144C302.292 110.717 298.902 108.821 294.796 107.449C290.691 106.081 285.089 104.528 277.996 102.783C268.039 100.421 259.983 98.0557 253.822 95.6899C247.663 93.3279 242.371 89.6234 237.955 84.584C233.537 79.5427 231.329 72.7297 231.329 64.143C231.329 56.9272 233.291 50.3627 237.21 44.4506C241.13 38.5414 247.039 33.8418 254.942 30.3556C262.843 26.8734 272.519 25.1299 283.97 25.1299C291.932 25.1299 299.771 26.1279 307.488 28.117C315.204 30.1091 321.862 32.97 327.463 36.7027L319.809 55.5554C314.084 52.1965 308.11 49.6472 301.89 47.9027C295.666 46.1621 289.631 45.2903 283.783 45.2903C274.199 45.2903 267.077 46.9086 262.409 50.1433C257.743 53.3809 255.409 57.6747 255.409 63.0237C255.409 66.7554 256.746 69.8076 259.424 72.1705C262.098 74.5354 265.49 76.4022 269.595 77.77C273.704 79.1408 279.302 80.696 286.396 82.4366C296.104 84.6762 304.065 87.01 310.29 89.436C316.51 91.863 321.831 95.5675 326.25 100.543C330.665 105.521 332.876 112.242 332.876 120.703C332.876 127.921 330.916 134.455 326.995 140.303C323.075 146.154 317.131 150.82 309.17 154.303C301.203 157.786 291.498 159.53 280.049 159.53C269.97 159.53 260.231 158.097 250.837 155.236Z" fill="#3C275E"/>
<path d="M414.634 152.25C411.896 154.49 408.569 156.169 404.65 157.29C400.729 158.41 396.59 158.97 392.235 158.97C381.284 158.97 372.822 156.109 366.849 150.383C360.875 144.662 357.89 136.322 357.89 125.371V77.3974H341.462V58.7301H357.89V35.9573H381.221V58.7301H407.914V77.3974H381.221V124.81C381.221 129.663 382.404 133.367 384.768 135.917C387.131 138.469 390.554 139.743 395.036 139.743C400.262 139.743 404.617 138.375 408.102 135.637L414.634 152.25Z" fill="#3C275E"/>
<path d="M496.585 130.41C502.184 124.687 504.984 117.157 504.984 107.823C504.984 98.4896 502.184 90.9621 496.585 85.2373C490.984 79.5135 483.892 76.6507 475.305 76.6507C466.717 76.6507 459.653 79.5135 454.117 85.2373C448.579 90.9621 445.811 98.4896 445.811 107.823C445.811 117.157 448.579 124.687 454.117 130.41C459.653 136.135 466.717 138.997 475.305 138.997C483.892 138.997 490.984 136.135 496.585 130.41ZM448.051 152.436C439.96 148.081 433.644 142.015 429.104 134.236C424.561 126.461 422.291 117.655 422.291 107.823C422.291 97.9935 424.561 89.2205 429.104 81.5027C433.644 73.7888 439.96 67.7534 448.051 63.3965C456.139 59.0415 465.224 56.863 475.305 56.863C485.507 56.863 494.653 59.0415 502.743 63.3965C510.833 67.7534 517.147 73.7888 521.69 81.5027C526.233 89.2205 528.503 97.9935 528.503 107.823C528.503 117.655 526.233 126.461 521.69 134.236C517.147 142.015 510.833 148.081 502.743 152.436C494.653 156.794 485.507 158.97 475.305 158.97C465.224 158.97 456.139 156.794 448.051 152.436Z" fill="#3C275E"/>
<path d="M568.821 152.436C560.607 148.081 554.197 142.015 549.594 134.236C544.989 126.46 542.688 117.655 542.688 107.823C542.688 97.9935 544.989 89.2205 549.594 81.5027C554.197 73.7878 560.576 67.7534 568.728 63.3955C576.877 59.0415 586.182 56.863 596.634 56.863C606.462 56.863 615.083 58.8561 622.487 62.8363C629.89 66.8204 635.461 72.5432 639.195 80.0106L621.274 90.4631C618.41 85.8606 614.834 82.4065 610.542 80.1028C606.249 77.802 601.55 76.6507 596.448 76.6507C587.736 76.6507 580.517 79.4815 574.795 85.1441C569.069 90.8077 566.21 98.3673 566.21 107.823C566.21 117.281 569.038 124.842 574.703 130.502C580.364 136.167 587.61 138.996 596.448 138.996C601.55 138.996 606.249 137.847 610.542 135.544C614.834 133.242 618.41 129.788 621.274 125.183L639.195 135.636C635.336 143.103 629.704 148.86 622.302 152.902C614.896 156.948 606.341 158.969 596.634 158.969C586.305 158.969 577.035 156.793 568.821 152.436Z" fill="#3C275E"/>
<path d="M699.115 114.917L681.754 131.343V157.664H658.422V19.157H681.754V102.784L730.101 57.9838H758.101L716.474 99.7967L762.021 157.664H733.648L699.115 114.917Z" fill="#3C275E"/>
<path d="M776.208 57.9834H799.541V157.664H776.208V57.9834ZM777.328 37.5444C774.464 34.8689 773.035 31.541 773.035 27.5569C773.035 23.5757 774.464 20.2478 777.328 17.5704C780.189 14.8959 783.737 13.5571 787.968 13.5571C792.198 13.5571 795.744 14.8347 798.608 17.383C801.469 19.9352 802.901 23.1408 802.901 26.9977C802.901 31.1032 801.501 34.5573 798.702 37.357C795.901 40.1568 792.322 41.5567 787.968 41.5567C783.737 41.5567 780.189 40.2218 777.328 37.5444Z" fill="#3C275E"/>
<path d="M913.964 57.9834H937.296V157.664H913.964V57.9834ZM915.086 37.5444C912.221 34.8689 910.791 31.541 910.791 27.5569C910.791 23.5757 912.221 20.2478 915.086 17.5704C917.945 14.8959 921.492 13.5571 925.725 13.5571C929.954 13.5571 933.5 14.8347 936.364 17.383C939.225 19.9352 940.656 23.1408 940.656 26.9977C940.656 31.1032 939.258 34.5573 936.457 37.357C933.657 40.1568 930.078 41.5567 925.725 41.5567C921.492 41.5567 917.945 40.2218 915.086 37.5444ZM855.911 52.7567V58.73H883.35V77.3973H856.658V157.663H833.326V77.3973H816.898V58.73H833.326V52.3839C833.326 41.6829 836.434 33.2506 842.658 27.09C848.879 20.9313 857.652 17.8509 868.977 17.8509C877.937 17.8509 884.967 19.6556 890.07 23.2631L883.538 40.8101C879.554 38.0744 875.26 36.7037 870.657 36.7037C860.825 36.7037 855.911 42.0547 855.911 52.7567Z" fill="#3C275E"/>
</svg>
