<svg width="750" height="225" viewBox="0 0 750 225" fill="none" xmlns="http://www.w3.org/2000/svg">
<path d="M147.533 52.3999L172.59 77.4568L77.4507 172.599L52.3932 147.542L147.533 52.3999Z" fill="#C39DF9"/>
<path d="M63.1193 158.27L122.337 99.0522L136.667 113.382L77.4492 172.6L63.1193 158.27Z" fill="#6D46AA"/>
<path d="M52.3926 147.544L92.5818 107.355L106.912 121.685L66.7226 161.874L52.3926 147.544Z" fill="#9565DB"/>
<path d="M41.6668 136.817L69.6726 108.812L84.0025 123.142L55.9967 151.147L41.6668 136.817Z" fill="#C39DF9"/>
<path d="M229.292 169.618C222.766 167.631 217.603 164.996 213.801 161.711L219.635 148.618C223.349 151.557 227.908 153.956 233.31 155.812C238.71 157.671 244.134 158.599 249.578 158.599C256.32 158.599 261.353 157.52 264.681 155.359C268.006 153.199 269.672 150.348 269.672 146.803C269.672 144.21 268.742 142.072 266.885 140.387C265.025 138.701 262.671 137.385 259.819 136.432C256.968 135.482 253.079 134.404 248.153 133.192C241.238 131.551 235.644 129.909 231.365 128.266C227.088 126.626 223.413 124.053 220.347 120.554C217.279 117.053 215.745 112.322 215.745 106.359C215.745 101.348 217.107 96.7889 219.829 92.6832C222.551 88.5796 226.655 85.316 232.143 82.8951C237.63 80.4769 244.349 79.2661 252.301 79.2661C257.831 79.2661 263.275 79.9591 268.633 81.3405C273.992 82.7239 278.615 84.7106 282.505 87.3028L277.19 100.395C273.214 98.0624 269.066 96.292 264.746 95.0806C260.423 93.8718 256.233 93.2664 252.172 93.2664C245.516 93.2664 240.57 94.3902 237.329 96.6365C234.088 98.8848 232.467 101.867 232.467 105.581C232.467 108.173 233.396 110.292 235.256 111.933C237.112 113.575 239.468 114.872 242.319 115.822C245.172 116.774 249.06 117.854 253.986 119.062C260.728 120.618 266.256 122.238 270.579 123.923C274.898 125.609 278.593 128.181 281.662 131.636C284.728 135.093 286.264 139.761 286.264 145.637C286.264 150.649 284.903 155.187 282.18 159.247C279.458 163.311 275.33 166.551 269.801 168.97C264.269 171.388 257.529 172.6 249.578 172.6C242.579 172.6 235.816 171.604 229.292 169.618Z" fill="#FCFBFB"/>
<path d="M343.04 167.544C341.139 169.099 338.828 170.266 336.107 171.044C333.384 171.822 330.51 172.211 327.486 172.211C319.88 172.211 314.004 170.224 309.856 166.248C305.708 162.274 303.634 156.483 303.634 148.878V115.563H292.226V102.6H303.634V86.7852H319.837V102.6H338.374V115.563H319.837V148.488C319.837 151.858 320.658 154.431 322.3 156.201C323.941 157.974 326.318 158.858 329.431 158.858C333.06 158.858 336.084 157.908 338.504 156.007L343.04 167.544Z" fill="#FCFBFB"/>
<path d="M399.95 152.377C403.839 148.403 405.783 143.174 405.783 136.692C405.783 130.21 403.839 124.983 399.95 121.007C396.061 117.032 391.136 115.044 385.173 115.044C379.209 115.044 374.303 117.032 370.459 121.007C366.613 124.983 364.691 130.21 364.691 136.692C364.691 143.174 366.613 148.403 370.459 152.377C374.303 156.353 379.209 158.34 385.173 158.34C391.136 158.34 396.061 156.353 399.95 152.377ZM366.247 167.673C360.628 164.649 356.242 160.436 353.089 155.034C349.934 149.635 348.358 143.52 348.358 136.692C348.358 129.866 349.934 123.773 353.089 118.414C356.242 113.057 360.628 108.866 366.247 105.84C371.863 102.816 378.172 101.303 385.173 101.303C392.258 101.303 398.609 102.816 404.227 105.84C409.845 108.866 414.23 113.057 417.385 118.414C420.539 123.773 422.116 129.866 422.116 136.692C422.116 143.52 420.539 149.635 417.385 155.034C414.23 160.436 409.845 164.649 404.227 167.673C398.609 170.7 392.258 172.21 385.173 172.21C378.172 172.21 371.863 170.7 366.247 167.673Z" fill="#FCFBFB"/>
<path d="M450.115 167.673C444.41 164.649 439.959 160.436 436.763 155.034C433.565 149.634 431.967 143.52 431.967 136.692C431.967 129.866 433.565 123.773 436.763 118.414C439.959 113.056 444.389 108.866 450.05 105.839C455.709 102.816 462.171 101.303 469.429 101.303C476.254 101.303 482.241 102.687 487.383 105.451C492.524 108.218 496.392 112.192 498.985 117.378L486.54 124.636C484.551 121.44 482.068 119.041 479.087 117.442C476.106 115.844 472.843 115.044 469.3 115.044C463.25 115.044 458.237 117.01 454.263 120.943C450.287 124.876 448.301 130.125 448.301 136.692C448.301 143.26 450.266 148.51 454.199 152.441C458.13 156.375 463.162 158.34 469.3 158.34C472.843 158.34 476.106 157.542 479.087 155.942C482.068 154.344 484.551 151.945 486.54 148.748L498.985 156.006C496.305 161.192 492.394 165.19 487.254 167.997C482.111 170.806 476.17 172.21 469.429 172.21C462.256 172.21 455.819 170.699 450.115 167.673Z" fill="#FCFBFB"/>
<path d="M540.596 141.618L528.54 153.025V171.303H512.338V75.1182H528.54V133.192L562.115 102.081H581.559L552.652 131.118L584.281 171.303H564.578L540.596 141.618Z" fill="#FCFBFB"/>
<path d="M594.134 102.081H610.337V171.304H594.134V102.081ZM594.911 87.8873C592.922 86.0293 591.93 83.7183 591.93 80.9515C591.93 78.1868 592.922 75.8758 594.911 74.0165C596.898 72.1592 599.362 71.2295 602.3 71.2295C605.238 71.2295 607.7 72.1167 609.689 73.8864C611.676 75.6587 612.67 77.8848 612.67 80.5632C612.67 83.4143 611.698 85.8129 609.754 87.7572C607.809 89.7015 605.324 90.6736 602.3 90.6736C599.362 90.6736 596.898 89.7466 594.911 87.8873Z" fill="#FCFBFB"/>
<path d="M689.797 102.081H706V171.304H689.797V102.081ZM690.576 87.8873C688.587 86.0293 687.594 83.7183 687.594 80.9515C687.594 78.1868 688.587 75.8758 690.576 74.0165C692.562 72.1592 695.025 71.2295 697.965 71.2295C700.901 71.2295 703.364 72.1167 705.353 73.8864C707.34 75.6587 708.333 77.8848 708.333 80.5632C708.333 83.4143 707.363 85.8129 705.418 87.7572C703.473 89.7015 700.988 90.6736 697.965 90.6736C695.025 90.6736 692.562 89.7466 690.576 87.8873ZM649.483 98.4514V102.6H668.538V115.563H650.001V171.303H633.798V115.563H622.39V102.6H633.798V98.1925C633.798 90.7613 635.957 84.9055 640.279 80.6273C644.599 76.3504 650.691 74.2113 658.556 74.2113C664.779 74.2113 669.66 75.4646 673.204 77.9697L668.668 90.1552C665.901 88.2554 662.919 87.3035 659.723 87.3035C652.895 87.3035 649.483 91.0195 649.483 98.4514Z" fill="#FCFBFB"/>
</svg>
