<svg width="200" height="200" viewBox="0 0 200 200" fill="none" xmlns="http://www.w3.org/2000/svg">
<g clip-path="url(#clip0_869_493)">
<path d="M69.7111 101.109C72.4303 101.98 75.0469 102.39 77.9713 102.39C80.2287 102.39 83.2557 101.98 83.2557 99.3668C83.2557 94.2947 69.0955 93.9361 69.0955 85.0215C69.0955 79.1809 74.7903 76.8242 80.3826 76.8242C83.5636 76.8242 86.3853 77.0804 89.8228 77.7464V82.9209C87.2575 82.1012 84.5384 81.6914 81.7679 81.6914C80.0748 81.6914 77.5608 82.2549 77.5608 84.1505C77.5608 88.9664 92.2341 89.3763 92.2341 98.547C92.2341 101.467 90.4898 107.308 79.2026 107.308C75.0982 107.308 71.9686 106.949 69.6598 106.591V101.109H69.7111Z" fill="#720039"/>
<path d="M132.56 106.591L121.273 90.9134L131.021 77.5928H124.095L115.116 90.2473V77.5928H107.061V106.591H115.116V94.0386L123.582 106.591H132.56Z" fill="#720039"/>
<path d="M141.641 92.0917C141.641 102.543 146.925 107.308 157.084 107.308C167.191 107.308 172.475 102.543 172.475 92.0917C172.475 81.5889 167.191 76.8242 157.084 76.8242C146.925 76.8755 141.641 81.6401 141.641 92.0917ZM150.055 92.0917C150.055 87.4295 151.081 81.3327 157.032 81.3327C162.933 81.3327 164.01 87.4295 164.01 92.0917C164.01 96.7539 162.984 102.799 157.032 102.799C151.081 102.851 150.055 96.7539 150.055 92.0917Z" fill="#720039"/>
<path d="M99.8785 77.5928H98.6985V106.642H99.8785V77.5928Z" fill="#720039"/>
<path d="M26.9224 106.591H34.4642L37.3886 99.3668H48.9836L51.8567 106.591H59.8091L48.4706 77.5928H38.7739L26.9224 106.591ZM39.133 94.6534L43.1348 84.3555L47.1366 94.6534H39.133Z" fill="#720039"/>
<path d="M63.503 77.5928H62.323V106.642H63.503V77.5928Z" fill="#720039"/>
<path d="M136.254 77.5928H135.074V106.642H136.254V77.5928Z" fill="#720039"/>
<path d="M46.7262 116.735H41.9548V117.811H46.7262V116.735Z" fill="#720039"/>
<path d="M51.4463 120.065H50.1637L49.3428 115.3H50.6254L50.9332 117.349C50.9845 117.708 51.0358 118.118 51.0358 118.477L52.7289 115.095L53.9089 115.454L51.4463 120.065Z" fill="#720039"/>
<path d="M55.4995 114.685C55.089 114.685 54.7812 114.327 54.7812 113.968C54.7812 113.507 55.1916 113.2 55.6021 113.2C56.0125 113.2 56.3204 113.507 56.3204 113.866C56.269 114.327 55.9099 114.685 55.4995 114.685ZM54.9864 120.065H53.8064L54.7299 115.3H55.9099L54.9864 120.065Z" fill="#720039"/>
<path d="M62.2717 114.071C62.1178 114.019 61.8613 114.019 61.7074 114.019C61.143 114.019 60.8865 114.275 60.7326 114.993L60.6813 115.3H61.7587L61.5534 116.222H60.476L59.7578 120.218C59.4499 121.755 58.6803 122.422 57.5003 122.422C57.2438 122.422 56.936 122.37 56.6794 122.319L56.9873 121.294C57.1412 121.346 57.3977 121.346 57.5516 121.346C58.0647 121.346 58.3725 121.089 58.5777 120.167L59.3473 116.222H58.5264L58.7317 115.3H59.5525L59.6038 114.941C59.8091 113.661 60.476 112.995 61.81 112.995C62.0665 112.995 62.323 112.995 62.5796 113.046L62.2717 114.071Z" fill="#720039"/>
<path d="M64.2726 116.222C63.4004 116.222 62.8361 117.298 62.8361 118.22C62.8361 118.733 63.0413 119.04 63.6056 119.04C64.4778 119.04 65.0422 118.118 65.0422 117.042C65.0422 116.53 64.837 116.222 64.2726 116.222ZM63.4517 120.116C62.1178 120.116 61.6047 119.501 61.6047 118.425C61.6047 116.427 62.9387 115.198 64.4778 115.198C65.8118 115.198 66.3248 115.915 66.3248 116.939C66.3248 118.886 64.9396 120.116 63.4517 120.116Z" fill="#720039"/>
<path d="M69.9676 116.376C69.2493 116.171 68.4284 117.401 68.1206 118.989L67.9154 120.014H66.7354L67.1971 117.555C67.351 116.889 67.5049 115.915 67.6075 115.3H68.7876C68.7363 115.659 68.5823 116.069 68.3771 116.735C68.8902 115.71 69.4032 115.095 70.2241 115.198L69.9676 116.376Z" fill="#720039"/>
<path d="M73.0971 116.222C72.8919 116.171 72.6867 116.12 72.4815 116.12C71.9684 116.12 71.7632 116.325 71.7632 116.632C71.7632 117.196 72.9945 117.503 72.9945 118.528C72.9945 119.296 72.3275 120.167 70.8397 120.167C70.5319 120.167 70.224 120.116 70.0188 120.116L70.224 119.091C70.4292 119.143 70.7371 119.245 70.9423 119.245C71.4553 119.245 71.7119 119.04 71.7119 118.733C71.7119 118.118 70.4805 117.964 70.4805 116.837C70.4805 115.966 71.1475 115.3 72.5328 115.3C72.8406 115.3 73.0971 115.3 73.3536 115.351L73.0971 116.222Z" fill="#720039"/>
<path d="M75.098 121.551C74.4823 122.166 73.8667 122.422 73.251 122.422C72.9945 122.422 72.7379 122.371 72.5327 122.371L72.7379 121.346C72.9432 121.397 73.0971 121.448 73.3023 121.448C73.6101 121.448 73.918 121.295 74.1745 121.039C74.4823 120.731 74.6362 120.424 74.6362 119.809C74.6362 118.477 74.3284 116.889 73.918 115.352H75.2519C75.5084 116.376 75.7136 117.76 75.7136 118.733C75.7136 118.836 75.7136 118.989 75.6623 119.143C76.278 117.965 76.8424 116.735 77.458 115.147L78.638 115.454C77.3041 118.579 76.2267 120.424 75.098 121.551Z" fill="#720039"/>
<path d="M82.6913 120.013H81.5112L82.0756 117.042C82.1782 116.478 82.0756 116.222 81.7678 116.222C81.1521 116.222 80.2799 117.708 80.0747 118.835L79.8695 120.013H78.6895L79.1512 117.554C79.3051 116.786 79.459 115.966 79.5616 115.3H80.7417C80.6904 115.607 80.5877 116.017 80.3312 116.786C80.7417 115.915 81.4086 115.198 82.3321 115.198C83.2556 115.198 83.5121 115.864 83.3582 116.786L82.6913 120.013Z" fill="#720039"/>
<path d="M86.5902 116.068C85.9745 116.068 85.5641 116.632 85.4102 117.247C86.4876 117.196 87.1033 116.991 87.1033 116.478C87.1033 116.222 86.898 116.068 86.5902 116.068ZM85.2563 118.118C85.2563 118.22 85.205 118.374 85.205 118.476C85.205 119.04 85.4102 119.194 86.0772 119.194C86.5389 119.194 87.0006 119.091 87.4624 118.886V119.808C86.9493 120.013 86.3337 120.116 85.6667 120.116C84.4867 120.116 83.9736 119.552 83.9736 118.528C83.9736 116.53 85.1537 115.198 86.6415 115.198C87.8215 115.198 88.1807 115.761 88.1807 116.376C88.2833 117.503 87.1546 118.067 85.2563 118.118Z" fill="#720039"/>
<path d="M91.8748 116.376C91.1565 116.171 90.3357 117.401 90.0278 118.989L89.8226 120.014H88.6426L89.1043 117.555C89.2582 116.889 89.4122 115.915 89.5148 115.3H90.6948C90.6435 115.659 90.4896 116.069 90.2843 116.735C90.7974 115.71 91.3105 115.095 92.1313 115.198L91.8748 116.376Z" fill="#720039"/>
<path d="M99.1603 120.014H97.7238L96.4924 116.786C96.2872 116.325 96.1333 115.813 96.0307 115.403C95.9794 116.018 95.8768 116.581 95.7229 117.247L95.2098 120.014H94.0298L95.2611 113.558H96.6977L97.8777 116.581C98.0829 117.093 98.2368 117.606 98.3907 118.118C98.442 117.503 98.596 116.786 98.6986 116.222L99.1603 113.558H100.34L99.1603 120.014Z" fill="#720039"/>
<path d="M103.214 116.222C102.341 116.222 101.777 117.298 101.777 118.22C101.777 118.733 101.982 119.04 102.547 119.04C103.419 119.04 103.983 118.118 103.983 117.042C103.983 116.53 103.778 116.222 103.214 116.222ZM102.393 120.116C101.059 120.116 100.546 119.501 100.546 118.425C100.546 116.427 101.88 115.198 103.419 115.198C104.753 115.198 105.266 115.915 105.266 116.939C105.266 118.886 103.881 120.116 102.393 120.116Z" fill="#720039"/>
<path d="M108.908 116.376C108.19 116.171 107.369 117.401 107.061 118.989L106.856 120.014H105.676L106.138 117.555C106.292 116.889 106.446 115.915 106.548 115.3H107.728C107.677 115.659 107.523 116.069 107.318 116.735C107.831 115.71 108.344 115.095 109.165 115.198L108.908 116.376Z" fill="#720039"/>
<path d="M111.884 116.171C110.807 116.171 110.293 117.452 110.293 118.425C110.293 118.886 110.396 119.091 110.653 119.091C111.32 119.091 112.192 117.554 112.397 116.53L112.448 116.222C112.243 116.171 112.089 116.171 111.884 116.171ZM112.807 120.321C112.551 121.653 111.73 122.421 109.883 122.421C109.37 122.421 108.857 122.37 108.498 122.216L108.754 121.089C109.113 121.294 109.627 121.345 110.088 121.345C111.012 121.345 111.525 120.987 111.679 120.167C111.781 119.604 111.884 119.296 112.14 118.528C111.781 119.194 111.114 120.116 110.14 120.116C109.421 120.116 109.011 119.655 109.011 118.63C109.011 116.837 109.986 115.198 112.038 115.198C112.602 115.198 113.167 115.249 113.731 115.351L112.807 120.321Z" fill="#720039"/>
<path d="M116.758 116.068C116.142 116.068 115.732 116.632 115.578 117.247C116.655 117.196 117.271 116.991 117.271 116.478C117.271 116.222 117.066 116.068 116.758 116.068ZM115.424 118.118C115.424 118.22 115.373 118.374 115.373 118.476C115.373 119.04 115.578 119.194 116.245 119.194C116.707 119.194 117.168 119.091 117.63 118.886V119.808C117.117 120.013 116.501 120.116 115.834 120.116C114.654 120.116 114.141 119.552 114.141 118.528C114.141 116.53 115.321 115.198 116.809 115.198C117.989 115.198 118.348 115.761 118.348 116.376C118.451 117.503 117.322 118.015 115.424 118.118Z" fill="#720039"/>
<path d="M127.686 120.014H126.506L127.07 117.042C127.173 116.479 127.07 116.222 126.814 116.222C126.198 116.222 125.326 117.708 125.121 118.835L124.915 120.065H123.735L124.3 117.093C124.402 116.53 124.3 116.274 124.043 116.274C123.427 116.274 122.555 117.759 122.35 118.887L122.145 120.065H120.965L121.427 117.606C121.529 117.042 121.734 115.915 121.837 115.351H123.017C122.966 115.659 122.812 116.12 122.607 116.837C123.017 115.966 123.684 115.249 124.556 115.249C125.121 115.249 125.531 115.556 125.531 116.171C125.531 116.376 125.48 116.53 125.377 116.837C125.839 115.966 126.455 115.249 127.378 115.249C128.301 115.249 128.558 115.915 128.404 116.837L127.686 120.014Z" fill="#720039"/>
<path d="M131.636 116.068C131.021 116.068 130.61 116.632 130.456 117.247C131.534 117.196 132.149 116.991 132.149 116.478C132.098 116.222 131.944 116.068 131.636 116.068ZM130.302 118.118C130.302 118.22 130.251 118.374 130.251 118.476C130.251 119.04 130.456 119.194 131.123 119.194C131.585 119.194 132.047 119.091 132.509 118.886V119.808C131.995 120.013 131.38 120.116 130.713 120.116C129.533 120.116 129.02 119.552 129.02 118.528C129.02 116.53 130.2 115.198 131.688 115.198C132.868 115.198 133.227 115.761 133.227 116.376C133.278 117.503 132.149 118.015 130.302 118.118Z" fill="#720039"/>
<path d="M136.51 116.171C135.433 116.171 134.92 117.452 134.92 118.425C134.92 118.887 135.022 119.091 135.279 119.091C135.946 119.091 136.818 117.554 137.023 116.53L137.075 116.222C136.921 116.171 136.715 116.171 136.51 116.171ZM137.844 118.323C137.742 118.835 137.639 119.604 137.536 120.014H136.356C136.408 119.655 136.562 119.143 136.818 118.528C136.459 119.245 135.792 120.167 134.817 120.167C134.099 120.167 133.688 119.706 133.688 118.682C133.688 116.888 134.663 115.249 136.715 115.249C136.869 115.249 137.023 115.249 137.229 115.3L137.639 113.148H138.819L137.844 118.323Z" fill="#720039"/>
<path d="M147.746 120.014H146.566L147.131 117.042C147.233 116.479 147.131 116.222 146.874 116.222C146.259 116.222 145.386 117.708 145.181 118.835L144.976 120.065H143.796L144.36 117.093C144.463 116.53 144.36 116.274 144.104 116.274C143.488 116.274 142.616 117.759 142.411 118.887L142.205 120.065H141.025L141.487 117.606C141.59 117.042 141.795 115.915 141.898 115.351H143.078C143.026 115.659 142.872 116.12 142.667 116.837C143.078 115.966 143.745 115.249 144.617 115.249C145.181 115.249 145.592 115.556 145.592 116.171C145.592 116.376 145.54 116.53 145.438 116.837C145.899 115.966 146.515 115.249 147.439 115.249C148.362 115.249 148.619 115.915 148.465 116.837L147.746 120.014Z" fill="#720039"/>
<path d="M151.902 116.171C150.824 116.171 150.311 117.452 150.311 118.425C150.311 118.887 150.414 119.092 150.671 119.092C151.338 119.092 152.21 117.555 152.415 116.53L152.466 116.222C152.312 116.171 152.107 116.171 151.902 116.171ZM152.928 120.014H151.748C151.851 119.655 151.953 119.143 152.21 118.528C151.851 119.245 151.184 120.167 150.209 120.167C149.491 120.167 149.08 119.706 149.08 118.682C149.08 116.888 150.055 115.249 152.107 115.249C152.671 115.249 153.236 115.3 153.8 115.403C153.39 117.555 153.133 118.784 152.928 120.014Z" fill="#720039"/>
<path d="M157.341 116.222H156.212L155.801 118.374C155.699 118.938 155.75 119.092 156.161 119.092C156.417 119.092 156.571 119.04 156.776 119.04L156.674 120.014C156.366 120.065 156.007 120.116 155.699 120.116C154.673 120.116 154.365 119.604 154.621 118.477L155.032 116.222H154.211L154.416 115.3H155.237L155.494 113.815L156.725 113.558L156.417 115.249H157.546L157.341 116.222Z" fill="#720039"/>
</g>
<defs>
<clipPath id="clip0_869_493">
<rect width="145.502" height="45.5974" fill="white" transform="translate(26.9224 76.8242)"/>
</clipPath>
</defs>
</svg>
