<svg width="200" height="200" viewBox="0 0 200 200" fill="none" xmlns="http://www.w3.org/2000/svg">
<g clip-path="url(#clip0_869_326)">
<path fill-rule="evenodd" clip-rule="evenodd" d="M42.2522 157.814H45.5762C50.6414 157.814 54.9151 154.484 55.2317 148.142C55.39 142.116 52.066 138.469 47.1591 138.469H42.2522M36.2373 133.712H47.6339C55.39 133.712 61.0883 139.579 61.2466 148.459C61.2466 156.546 54.5985 162.73 46.6842 162.73H36.2373V133.712ZM112.848 133.712H132.317V138.628H119.179V145.129H131.526V150.044H119.179V158.131H133.109V162.888H112.848V133.712ZM74.2261 162.73V157.973H82.2987L75.1758 139.579L66.47 162.73H60.1386L71.2186 133.712H78.8164L90.213 162.888H74.2261V162.73ZM85.3061 138.628V133.712H110.474V138.628H101.293V162.888H94.8033V138.628H85.3061ZM147.988 133.712V138.628H155.427L148.779 156.387L140.39 133.712H133.9L145.297 162.73H152.261L163.5 133.712H147.988Z" fill="#039A9A"/>
<path d="M163.025 36.9858H36.0789V126.894H163.025V36.9858Z" fill="#90D033"/>
</g>
<defs>
<clipPath id="clip0_869_326">
<rect width="127.421" height="125.744" fill="white" transform="translate(36.0789 36.9858)"/>
</clipPath>
</defs>
</svg>
