<svg width="200" height="200" viewBox="0 0 200 200" fill="none" xmlns="http://www.w3.org/2000/svg">
<path d="M147.384 81.4745L120.294 85.2579L142.113 68.8821C143.034 68.1913 143.795 67.3116 144.345 66.3026C144.895 65.2936 145.222 64.1786 145.302 63.0331C145.383 61.8876 145.216 60.7381 144.812 59.6625C144.409 58.5869 143.778 57.61 142.963 56.798C142.148 55.986 141.168 55.3578 140.088 54.9557C139.009 54.5536 137.855 54.3871 136.706 54.4673C135.556 54.5476 134.437 54.8728 133.424 55.421C132.412 55.9692 131.529 56.7275 130.836 57.6448L114.401 79.3852L118.198 52.3933C118.351 51.2483 118.258 50.0839 117.925 48.9776C117.591 47.8713 117.025 46.8485 116.263 45.9775C115.502 45.1065 114.563 44.4073 113.509 43.9265C112.454 43.4456 111.31 43.1942 110.15 43.189C108.997 43.1884 107.856 43.4345 106.806 43.9106C105.756 44.3867 104.821 45.0818 104.063 45.9489C103.306 46.816 102.744 47.835 102.416 48.937C102.087 50.039 102 51.1984 102.16 52.3368L105.957 79.3287L89.5219 57.5884C88.8286 56.671 87.9458 55.9127 86.9331 55.3645C85.9204 54.8163 84.8014 54.491 83.6517 54.4107C82.5021 54.3305 81.3485 54.497 80.269 54.899C79.1894 55.3011 78.2091 55.9294 77.3941 56.7414C76.5792 57.5534 75.9487 58.5302 75.5452 59.6059C75.1416 60.6815 74.9745 61.831 75.0551 62.9765C75.1357 64.1221 75.4621 65.237 76.0123 66.2461C76.5624 67.2551 77.3236 68.1348 78.2442 68.8256L100.063 85.2014L72.9737 81.418C71.8312 81.2595 70.6679 81.3469 69.5622 81.6743C68.4565 82.0018 67.4341 82.5617 66.564 83.3163C65.6939 84.0709 64.9963 85.0026 64.5183 86.0486C64.0402 87.0947 63.7929 88.2307 63.7929 89.3801C63.7929 90.5294 64.0402 91.6654 64.5183 92.7115C64.9963 93.7575 65.6939 94.6892 66.564 95.4438C67.4341 96.1984 68.4565 96.7583 69.5622 97.0858C70.6679 97.4133 71.8312 97.5007 72.9737 97.3421L100.063 93.5587L46.2246 140.879C45.3322 141.664 44.6106 142.622 44.1042 143.695C43.5978 144.768 43.3173 145.933 43.2801 147.118C43.243 148.303 43.4498 149.484 43.888 150.586C44.3262 151.688 44.9863 152.69 45.8278 153.528C46.6693 154.367 47.6742 155.025 48.7806 155.461C49.887 155.898 51.0715 156.104 52.2609 156.067C53.4504 156.03 54.6196 155.75 55.6965 155.246C56.7734 154.741 57.7351 154.022 58.5224 153.133L106.014 99.4879L102.216 126.48C102.057 127.618 102.145 128.777 102.473 129.879C102.802 130.981 103.364 132 104.121 132.867C104.879 133.734 105.814 134.429 106.864 134.905C107.913 135.381 109.053 135.628 110.207 135.628C111.36 135.628 112.501 135.381 113.55 134.905C114.6 134.429 115.535 133.734 116.293 132.867C117.05 132 117.612 130.981 117.94 129.879C118.269 128.777 118.357 127.618 118.198 126.48L114.401 99.4879L130.836 121.228C131.529 122.146 132.412 122.904 133.425 123.452C134.437 124 135.556 124.326 136.706 124.406C137.856 124.486 139.009 124.32 140.089 123.918C141.168 123.515 142.149 122.887 142.964 122.075C143.778 121.263 144.409 120.286 144.812 119.211C145.216 118.135 145.383 116.985 145.302 115.84C145.222 114.694 144.895 113.579 144.345 112.57C143.795 111.561 143.034 110.682 142.113 109.991L120.294 93.6152L147.384 97.3986C148.526 97.5572 149.689 97.4698 150.795 97.1423C151.901 96.8148 152.923 96.2549 153.793 95.5003C154.663 94.7457 155.361 93.814 155.839 92.768C156.317 91.7219 156.564 90.5859 156.564 89.4366C156.564 88.2872 156.317 87.1512 155.839 86.1051C155.361 85.0591 154.663 84.1274 153.793 83.3728C152.923 82.6182 151.901 82.0583 150.795 81.7308C149.689 81.4033 148.526 81.3159 147.384 81.4745Z" fill="#7545FB"/>
</svg>
