<svg width="200" height="200" viewBox="0 0 200 200" fill="none" xmlns="http://www.w3.org/2000/svg">
<path fill-rule="evenodd" clip-rule="evenodd" d="M93.3073 95.504C90.4971 95.5089 87.7988 94.4034 85.7998 92.4284C84.8283 91.4637 84.0567 90.3168 83.5289 89.0536C83.0011 87.7903 82.7277 86.4353 82.7241 85.0662V81.0461C82.6999 58.4026 101.372 40.0214 124.427 39.9487C132.734 39.9487 140.871 42.3705 147.749 46.9719C148.876 47.7311 149.842 48.7062 150.59 49.8408C151.339 50.9753 151.855 52.2469 152.11 53.5821C152.364 54.9173 152.351 56.2897 152.073 57.62C151.794 58.9503 151.254 60.2122 150.485 61.3329C148.901 63.6064 146.498 65.1786 143.781 65.7203C141.063 66.2621 138.241 65.7312 135.906 64.239C132.505 61.9797 128.51 60.7827 124.427 60.8001C119.021 60.7679 113.822 62.8813 109.972 66.6768C106.122 70.4723 103.935 75.64 103.89 81.0461V85.0904C103.89 87.8512 102.776 90.491 100.791 92.4526C98.7935 94.4129 96.1056 95.5089 93.3073 95.504Z" fill="#75ABF7"/>
<path fill-rule="evenodd" clip-rule="evenodd" d="M128.52 105.288H103.891V81.0461C103.943 79.1732 103.49 77.3207 102.577 75.684C101.665 74.0473 100.329 72.687 98.7079 71.7465C97.0709 70.7841 95.2064 70.2766 93.3074 70.2766C91.4084 70.2766 89.5439 70.7841 87.9069 71.7465C86.2863 72.687 84.9495 74.0473 84.0374 75.684C83.1252 77.3207 82.6716 79.1732 82.7243 81.0461V105.288H58.0949C55.3051 105.262 52.6189 106.344 50.6258 108.296C48.6326 110.249 47.4953 112.912 47.4634 115.702C47.4634 121.465 52.21 126.139 58.0949 126.139H82.7243V150.405C82.6915 152.265 83.1572 154.099 84.0728 155.717C84.9884 157.335 86.3206 158.679 87.9311 159.608C91.2489 161.521 95.3659 161.521 98.6837 159.608C100.294 158.679 101.626 157.335 102.542 155.717C103.458 154.099 103.923 152.265 103.891 150.405V126.115H128.52C131.31 126.141 133.996 125.059 135.989 123.107C137.982 121.155 139.119 118.491 139.151 115.702C139.151 109.938 134.381 105.288 128.52 105.288Z" fill="#5239BA"/>
</svg>
