<svg width="200" height="200" viewBox="0 0 200 200" fill="none" xmlns="http://www.w3.org/2000/svg">
<g clip-path="url(#clip0_869_323)">
<g clip-path="url(#clip1_869_323)">
<path fill-rule="evenodd" clip-rule="evenodd" d="M100.5 29.8663L106.904 41.0483C108.226 43.361 108.226 46.1819 106.904 48.4946L68.8342 114.926L86.8018 146.261C91.0713 153.835 100.678 156.478 108.251 152.208C110.742 150.81 112.8 148.752 114.198 146.261L132.165 114.926L127.311 106.463L106.929 142.017C104.896 145.575 100.347 146.77 96.8148 144.736C95.6966 144.076 94.7563 143.135 94.0955 142.017L78.5931 114.926L113.918 53.2469L120.323 64.429C121.644 66.7416 121.644 69.588 120.323 71.9006L95.6458 114.926L100.5 123.389L127.311 76.6276L144.898 107.277C147.591 112.004 147.591 117.798 144.898 122.525L127.006 153.682C124.262 158.46 115.824 169.108 100.449 169.108C85.0736 169.108 76.6871 158.46 73.9424 153.682L56.0765 122.525C53.3827 117.798 53.3827 111.978 56.0765 107.251L100.5 29.8663Z" fill="#E81C1C"/>
</g>
</g>
<defs>
<clipPath id="clip0_869_323">
<rect width="200" height="200" rx="24" fill="white"/>
</clipPath>
<clipPath id="clip1_869_323">
<rect width="203.31" height="203.31" fill="white" transform="translate(-1.15527 -2.15503)"/>
</clipPath>
</defs>
</svg>
