<svg preserveAspectRatio="none" width="100%" height="100%" overflow="visible" style="display: block;" viewBox="0 0 260.883 260.613" fill="none" xmlns="http://www.w3.org/2000/svg">
<g id="Group">
<path id="Vector" d="M130.441 0C116.64 0 103.379 2.16501 90.9301 6.22439C143.161 -5.14189 195.121 16.2375 214.065 60.6202C235.715 111.768 204.593 173.742 144.785 199.181C91.2007 221.642 32.4749 207.299 5.41235 166.976C21.3793 221.101 71.1744 260.613 130.441 260.613C202.428 260.613 260.883 202.157 260.883 130.171C260.883 58.1845 202.157 0 130.441 0Z" fill="var(--fill-0, #E60000)"/>
<path id="Vector_2" d="M144.785 198.91C204.593 173.471 235.715 111.498 214.065 60.3495C195.121 16.2375 143.161 -5.1419 90.9302 6.22438C38.1582 22.7325 0 71.9864 0 130.442C0 143.161 1.89438 155.61 5.41251 167.247C32.4751 207.299 91.2009 221.642 144.785 198.91Z" fill="var(--fill-0, #AF0000)"/>
<g id="Group_2">
<path id="Vector_3" d="M163.728 189.167V55.4783C163.728 52.772 161.563 50.607 158.857 50.607H128.547C126.382 50.607 125.3 51.1483 123.135 51.6895L84.1645 71.7158C81.7289 72.7983 80.917 74.1515 80.917 76.5871V98.5078C80.917 101.214 83.082 103.108 85.5176 103.108H110.415V208.382C121.781 206.758 133.418 203.781 144.785 198.91C151.55 196.204 157.775 192.956 163.728 189.167Z" fill="var(--fill-0, white)"/>
<g id="Vector_4">
</g>
</g>
</g>
</svg>
