<svg preserveAspectRatio="none" width="100%" height="100%" overflow="visible" style="display: block;" viewBox="0 0 237.824 237.824" fill="none" xmlns="http://www.w3.org/2000/svg">
<g id="Group">
<path id="Vector" d="M198.077 0H39.7462C17.7812 0 0 17.7812 0 39.7462V198.077C0 220.042 17.7812 237.824 39.7462 237.824H198.077C220.042 237.824 237.824 220.042 237.824 198.077V39.7462C237.824 17.7812 220.042 0 198.077 0ZM194.547 182.127C194.547 189.056 188.925 194.678 181.996 194.678H55.8277C48.8983 194.678 43.2763 189.056 43.2763 182.127V55.8277C43.2763 48.8983 48.8983 43.2763 55.8277 43.2763H182.127C189.056 43.2763 194.678 48.8983 194.678 55.8277V182.127H194.547Z" fill="var(--fill-0, white)"/>
<path id="Vector_2" d="M93.7441 151.14C89.691 151.14 86.5531 147.872 86.5531 143.949V93.6129C86.5531 89.5598 89.8217 86.4219 93.7441 86.4219H144.211C148.134 86.4219 151.402 89.6905 151.402 93.6129V143.949C151.402 148.002 148.134 151.14 144.211 151.14H93.7441Z" fill="var(--fill-0, white)"/>
</g>
</svg>
