<svg width="200" height="200" viewBox="0 0 200 200" fill="none" xmlns="http://www.w3.org/2000/svg">
<path d="M126.204 60.4291L135.913 41.631C121.04 27.894 103.171 33.2649 97.5935 43.5935C95.7343 47.0019 95.631 51.3399 96.7672 55.9878C108.232 49.584 126.204 60.4291 126.204 60.4291Z" fill="#ffffff"/>
<path d="M45.5364 134.175C44.8133 136.344 44.5035 138.513 44.6068 140.889C46.2594 173.114 92.0161 169.602 112.261 158.034C118.355 154.522 123.622 149.461 126.721 142.954C129.2 137.79 129.2 132.729 127.96 128.184C118.561 136.551 102.345 141.095 91.3963 142.851C64.2315 147.396 51.4238 141.095 45.5364 134.175Z" fill="#ffffff"/>
<path d="M158.533 82.6354L147.378 66.5228C147.378 66.5228 139.425 76.5415 114.636 81.8091C108.026 76.5415 99.6592 67.2458 96.7671 55.9877C95.5277 56.7107 94.2882 57.6402 93.1521 58.7764C88.0909 64.3538 87.3679 75.5087 93.1521 86.7668C85.7153 88.4194 64.6445 93.5837 53.4894 101.02C42.8507 108.147 40.2685 116.823 40.5784 122.917C40.6816 125.189 41.7145 129.837 45.4329 134.278C47.8085 127.255 54.5223 121.471 63.9215 117.649C85.8186 108.767 108.749 104.842 108.955 104.739C110.298 105.668 124.345 115.17 127.857 128.184C130.233 126.015 132.195 123.64 133.434 121.058C135.294 117.339 140.148 107.424 132.402 98.6447C132.298 98.4381 131.885 98.1283 131.679 97.8184C142.214 93.7903 152.543 89.6588 158.533 82.6354Z" fill="#ffffff"/>
</svg>
