<svg width="200" height="200" viewBox="0 0 200 200" fill="none" xmlns="http://www.w3.org/2000/svg">
<g clip-path="url(#clip0_869_466)">
<path d="M124.622 101.907V97.755H148.722C148.346 91.7159 145.71 86.0543 141.191 81.9024C137.049 77.7506 131.777 75.1085 125.752 74.3536C120.103 73.5987 114.078 75.1085 109.183 78.128C104.287 81.1476 100.522 86.0543 98.6388 91.3385C96.7559 97.0001 96.7559 103.039 99.0153 108.323C101.275 113.607 104.664 118.514 109.936 121.534C114.831 124.553 120.856 125.686 126.505 124.931C132.153 124.176 137.802 121.534 141.567 117.004C145.71 112.853 147.969 107.191 148.346 101.529L124.622 101.907Z" fill="#58B3CD"/>
<path d="M75.6682 146.822H79.8104V171.356C85.8355 170.979 91.484 168.337 95.6262 163.807C99.7685 159.655 102.404 154.371 103.158 148.332C103.911 142.293 102.404 136.632 99.3919 131.725C96.3794 126.818 91.484 123.044 86.2121 121.156C80.5636 119.269 74.5385 119.269 69.2666 121.534C63.6181 123.421 59.0993 127.573 56.0867 132.48C53.0742 137.386 51.9445 143.425 52.6976 149.465C53.4508 155.126 56.0867 160.788 60.6055 164.94C64.7478 169.091 70.3963 171.356 76.0448 172.111L75.6682 146.822Z" fill="#1AB96D"/>
<path d="M79.4339 53.9719L76.4214 50.9524L93.7434 33.9675C88.4715 29.8157 82.0699 27.551 75.2917 27.9285C68.5135 28.3059 62.4884 31.3254 57.9696 36.2322C53.4508 41.1389 51.1914 47.5554 51.1914 53.9719C51.1914 60.7658 54.2039 66.8049 58.7227 71.7116C63.2415 76.2409 69.6432 79.2605 76.4214 79.2605C83.1996 79.2605 89.6012 76.9958 94.4966 72.4665C99.3919 67.9372 102.404 61.8982 102.781 55.1042C103.158 48.6877 100.898 41.8938 96.756 36.9871L79.4339 53.9719Z" fill="#010A59"/>
</g>
<defs>
<clipPath id="clip0_869_466">
<rect width="97.5308" height="143.428" fill="white" transform="translate(51.1914 27.9285)"/>
</clipPath>
</defs>
</svg>
