<svg width="200" height="200" viewBox="0 0 200 200" fill="none" xmlns="http://www.w3.org/2000/svg">
<path fill-rule="evenodd" clip-rule="evenodd" d="M90.059 99.2224C93.9731 101.449 96.4015 105.593 96.4015 110.047V139.622L81.0048 130.864V112.497L81.6338 111.404L64.0679 101.599V84.4357L90.059 99.2224Z" fill="#1F8690"/>
<path fill-rule="evenodd" clip-rule="evenodd" d="M55.1466 126.066L64.0679 131.297V148.82L46.3165 138.412C42.543 136.201 40.2026 132.083 40.2026 127.658V106.663L55.1466 115.259V126.066Z" fill="#1F8690"/>
<path fill-rule="evenodd" clip-rule="evenodd" d="M80.2417 158.223V140.116L95.7554 149.108V167.215L80.2417 158.223Z" fill="#1F8690"/>
<path fill-rule="evenodd" clip-rule="evenodd" d="M40.2026 88.0521V70.639L54.8298 79.453V96.6994L40.2026 88.0521Z" fill="#1F8690"/>
<path fill-rule="evenodd" clip-rule="evenodd" d="M137.203 102.044L120.516 111.357L120.608 111.516L120.371 111.65V130.803L104.87 139.622V110.048C104.87 105.594 107.299 101.45 111.213 99.223L137.203 84.4357V102.044Z" fill="#FFC120"/>
<path fill-rule="evenodd" clip-rule="evenodd" d="M159.529 70.639V88.1964L144.902 96.6994V79.3059L159.529 70.639Z" fill="#FFC120"/>
<path fill-rule="evenodd" clip-rule="evenodd" d="M144.432 116.147L159.529 107.43V128.272C159.529 132.759 157.164 136.934 153.353 139.176L135.664 149.586V131.817L144.432 126.658V116.147Z" fill="#FFC120"/>
<path fill-rule="evenodd" clip-rule="evenodd" d="M103.958 149.108L119.687 139.969V158.077L103.958 167.215V149.108Z" fill="#FFC120"/>
<path fill-rule="evenodd" clip-rule="evenodd" d="M132.584 77.165L106.594 91.9622C102.68 94.1907 97.8231 94.1907 93.909 91.9622L67.917 77.1642L83.2868 68.4133L100.13 77.9917L100.19 77.8881L100.251 77.9229L117.083 68.3397L132.584 77.165Z" fill="#FF8D6B"/>
<path fill-rule="evenodd" clip-rule="evenodd" d="M44.8218 62.9405L60.1524 54.543L75.6157 63.0027L60.2755 71.4055L44.8218 62.9405Z" fill="#FF8D6B"/>
<path fill-rule="evenodd" clip-rule="evenodd" d="M99.9891 48.5776L90.8781 53.7765L75.6157 45.0758L93.7477 34.7295C97.5995 32.5322 102.379 32.5322 106.23 34.7295L124.116 44.9361L108.911 53.6688L99.9891 48.5776Z" fill="#FF8D6B"/>
<path fill-rule="evenodd" clip-rule="evenodd" d="M141.106 72.9385L125.656 63.7235L140.949 54.543L156.45 63.7875L141.106 72.9385Z" fill="#FF8D6B"/>
</svg>
