<svg width="200" height="200" viewBox="0 0 200 200" fill="none" xmlns="http://www.w3.org/2000/svg">
<g clip-path="url(#clip0_869_494)">
<path d="M144.881 40.8777H55.7355C47.5299 40.8777 40.8779 47.5296 40.8779 55.7352V144.88C40.8779 153.086 47.5299 159.738 55.7355 159.738H144.881C153.086 159.738 159.738 153.086 159.738 144.88V55.7352C159.738 47.5296 153.086 40.8777 144.881 40.8777Z" fill="#275DF6"/>
<mask id="mask0_869_494" style="mask-type:luminance" maskUnits="userSpaceOnUse" x="59" y="59" width="83" height="83">
<path d="M141.167 59.4497H59.4502V141.166H141.167V59.4497Z" fill="white"/>
</mask>
<g mask="url(#mask0_869_494)">
<mask id="mask1_869_494" style="mask-type:luminance" maskUnits="userSpaceOnUse" x="59" y="59" width="83" height="83">
<path d="M141.167 59.4497H59.4502V141.166H141.167V59.4497Z" fill="white"/>
</mask>
<g mask="url(#mask1_869_494)">
<path d="M98.8968 59.4751L98.8905 59.4879L98.8006 59.4944V75.5316C99.019 75.5188 99.2311 75.4931 99.4499 75.4866C113.165 75.0076 124.668 85.7397 125.147 99.4588C125.626 113.178 114.897 124.685 101.182 125.164C87.4707 125.64 75.964 114.908 75.4851 101.192C75.228 94.8964 79.9431 97.4397 91.7392 101.655V85.4374C65.2577 75.2904 58.807 81.83 59.498 101.732C60.2851 124.283 79.1976 141.928 101.741 141.143C124.289 140.356 141.928 121.438 141.141 98.8864C140.353 76.3322 121.441 58.6874 98.8968 59.4751Z" fill="white"/>
</g>
</g>
</g>
<defs>
<clipPath id="clip0_869_494">
<rect width="118.86" height="118.86" fill="white" transform="translate(40.8779 40.8777)"/>
</clipPath>
</defs>
</svg>
