<svg width="200" height="200" viewBox="0 0 200 200" fill="none" xmlns="http://www.w3.org/2000/svg">
<g clip-path="url(#clip0_869_322)">
<mask id="mask0_869_322" style="mask-type:luminance" maskUnits="userSpaceOnUse" x="-5" y="-5" width="211" height="211">
<path d="M-4.76953 -4.76954H205.074V205.074H-4.76953V-4.76954Z" fill="white"/>
</mask>
<g mask="url(#mask0_869_322)">
<path d="M100.152 177.424C142.833 177.424 177.432 142.828 177.432 100.153C177.432 57.4764 142.833 22.8809 100.152 22.8809C57.4718 22.8809 22.8726 57.4764 22.8726 100.153C22.8726 142.828 57.4718 177.424 100.152 177.424Z" fill="white"/>
<path d="M100.152 170.183C138.829 170.183 170.183 138.83 170.183 100.152C170.183 61.4754 138.829 30.1216 100.152 30.1216C61.4756 30.1216 30.1216 61.4754 30.1216 100.152C30.1216 138.83 61.4756 170.183 100.152 170.183Z" fill="#00C2E8"/>
<path d="M88.4547 82.0512C87.319 82.0408 86.3104 82.0888 85.8104 82.1368C84.8147 82.2304 84.4706 83.1717 84.5342 84.1022C85.4659 97.5737 82.3663 113.216 78.9935 113.187C76.484 113.163 75.8459 105.836 75.9043 99.3227C75.9363 95.4722 76.1875 91.7657 76.3092 88.4904C76.352 87.2739 75.9123 87.041 75.0362 86.9286C73.7072 86.755 72.7543 86.7466 71.4305 87.0274C70.4192 87.2439 70.1732 88.0704 69.0902 90.5839C63.6927 103.112 58.504 113.168 58.504 113.168C57.2439 103.031 59.0601 93.2259 60.5955 86.0729C60.8071 85.086 60.3415 84.5007 59.5314 84.5063C58.0036 84.5191 55.6609 84.5487 54.5967 85.2304C53.599 85.8725 53.2254 86.5622 52.9261 87.9928C51.2191 96.1887 50.065 106.475 51.6424 114.452C51.984 116.177 52.3784 116.585 53.1009 117.043C53.8238 117.5 56.9394 117.931 58.1492 117.941C59.5234 117.955 60.7835 117.596 61.8449 115.811C64.0924 112.032 65.9006 108.256 69.3154 100.978C69.5775 110.499 70.856 117.984 77.5429 118.043C86.4085 118.12 92.3224 96.0226 92.4124 85.3668C92.4388 82.5484 91.0439 82.0756 88.4547 82.0512Z" fill="white"/>
<path d="M148.901 94.3219C148.901 94.3219 145.907 94.1375 142.46 93.9559C142.46 93.9559 143.191 90.1346 143.546 88.576C143.721 87.8135 143.323 87.0514 142.36 86.8081C141.404 86.5673 139.202 86.5329 138.46 86.6105C137.844 86.6745 137.24 87.0382 137.097 87.6774C136.735 89.2737 136.356 91.1963 135.903 93.6591C134.624 93.6162 133.381 93.595 132.518 93.6026C131.713 93.611 131.329 94.0171 131.16 94.6804C130.987 95.3409 130.844 96.2846 130.781 97.2635C130.733 98.004 131.54 98.3649 132.374 98.3413C132.374 98.3413 133.396 98.3037 135 98.2397C134.691 99.6407 134.066 103.395 133.82 105.732C132.332 110.58 129.298 114.141 126.712 114.117C125.129 114.104 124.192 113.155 124.216 110.305C124.25 106.355 125.201 101.37 126.567 96.3786C128.47 91.9048 129.587 86.9233 129.606 84.661C129.613 83.8109 129.362 82.8564 128.346 82.6452C126.508 82.2623 124.758 82.3159 123.53 82.6848C122.432 83.0164 122.199 84.1662 122.061 84.779C121.402 87.7254 120.322 92.9474 119.556 97.5284C117.931 99.4642 116.068 100.817 114.064 101.135C113.804 95.06 110.294 92.4209 105.426 92.3781C96.8779 92.3005 91.3636 99.8703 91.2895 108.419C91.2287 115.345 94.9824 118.265 100.484 118.316C106.977 118.372 111.851 113.805 113.728 105.368C115.57 105.01 117.172 104.13 118.559 102.903C118.559 102.903 117.479 108.131 117.452 111.205C117.41 115.866 119.39 118.482 124.086 118.522C127.951 118.556 131.347 115.861 133.484 112.566C134.013 116.899 136.258 118.631 139.929 118.664C143.302 118.693 146.569 116.583 148.898 112.732C149.364 111.965 149.703 111.291 149.417 110.954C148.756 110.182 147.488 109.772 147.133 110.406C145.592 113.166 143.956 114.27 142.183 114.254C140.779 114.243 139.652 113.399 139.673 110.965C139.702 107.462 141.756 98.0124 141.756 98.0124C143.49 97.964 145.417 97.9212 147.249 97.8976C148.856 97.8732 149.997 97.3944 150.288 95.8702C150.46 94.9636 149.934 94.3784 148.901 94.3219ZM101.486 114.559C99.5198 114.543 98.22 112.834 98.2492 109.47C98.3049 103.018 100.661 96.0974 104.785 96.135C105.249 96.1378 105.659 96.2046 106.021 96.3514C105.955 96.6003 105.903 96.8063 105.881 96.9211C105.233 100.577 105.966 102.914 107.702 104.218C106.76 109.876 104.214 114.583 101.486 114.559Z" fill="white"/>
</g>
</g>
<defs>
<clipPath id="clip0_869_322">
<rect width="200" height="200" rx="24" fill="white"/>
</clipPath>
</defs>
</svg>
