<svg width="200" height="200" viewBox="0 0 200 200" fill="none" xmlns="http://www.w3.org/2000/svg">
<g clip-path="url(#clip0_869_468)">
<path d="M128.487 79.9928C124.993 79.9928 121.268 82.8375 119.363 89.0302V83.7147C119.363 81.6624 117.771 79.9928 115.814 79.9928C113.857 79.9928 112.264 81.6624 112.264 83.7147L112.264 115.767C112.264 117.82 113.856 119.489 115.813 119.489C117.771 119.489 119.363 117.82 119.363 115.767V100.712C119.363 93.4715 123.262 89.1766 129.251 87.769C131.164 87.3191 132.353 85.8046 132.353 83.8163C132.353 81.565 130.763 79.9928 128.487 79.9928Z" fill="#3ECCFF"/>
<path d="M151.032 79.9928C140.647 79.9928 132.198 88.8518 132.198 99.741C132.198 110.63 140.647 119.489 151.032 119.489C161.417 119.489 169.865 110.63 169.865 99.741C169.865 88.8517 161.417 79.9928 151.032 79.9928ZM151.032 112.048C144.56 112.048 139.295 106.527 139.295 99.741C139.295 92.9548 144.56 87.4338 151.032 87.4338C157.504 87.4338 162.769 92.9547 162.769 99.741C162.769 106.527 157.504 112.048 151.032 112.048Z" fill="#3ECCFF"/>
<path d="M151.027 94.8105C148.44 94.8105 146.336 97.017 146.336 99.7293C146.336 102.442 148.44 104.648 151.027 104.648C153.613 104.648 155.718 102.442 155.718 99.7293C155.718 97.017 153.613 94.8105 151.027 94.8105Z" fill="#3ECCFF"/>
<path d="M87.9677 79.9928C77.5786 79.9928 69.1265 88.8518 69.1265 99.741C69.1265 110.729 77.3287 119.489 88.674 119.489C94.2115 119.489 98.7831 117.724 102.649 114.092C103.067 113.654 103.779 112.705 103.779 111.349C103.779 109.296 102.322 107.748 100.39 107.748C99.3935 107.748 98.8317 108.048 98.1966 108.566C95.4045 110.977 92.3369 112.15 88.8222 112.15C82.8276 112.15 77.9296 108.452 76.5885 102.878L102.618 102.878C105.018 102.869 106.758 100.84 106.758 98.0464C106.758 91.292 100.443 79.9928 87.9677 79.9928ZM76.578 96.5929C77.8384 91.1419 82.3356 87.2527 87.9677 87.2527C93.5184 87.2527 98.0561 90.7293 99.3463 96.5929H76.578Z" fill="#3ECCFF"/>
<path d="M68.141 83.669C68.141 81.6346 66.5685 79.9928 64.6353 79.9928C63.6989 79.9928 62.8185 80.3752 62.1564 81.0695L49.3078 94.5418L36.4593 81.0695C35.7971 80.3752 34.9167 79.9928 33.9803 79.9928C32.0471 79.9928 30.4746 81.6346 30.4746 83.669C30.4746 84.6509 30.8392 85.574 31.5014 86.2683L44.3498 99.7405L31.5014 113.213C30.8393 113.907 30.4746 114.83 30.4746 115.812C30.4746 117.845 32.043 119.488 33.9804 119.488C34.9167 119.488 35.7972 119.106 36.4594 118.411L49.3078 104.939L62.1562 118.411C62.8184 119.106 63.6989 119.488 64.6352 119.488C66.5726 119.488 68.1409 117.845 68.1409 115.812C68.1409 114.83 67.7763 113.907 67.1142 113.213L54.2658 99.7404L67.1142 86.2682C67.7764 85.574 68.141 84.6509 68.141 83.669Z" fill="#3ECCFF"/>
</g>
<defs>
<clipPath id="clip0_869_468">
<rect width="139.799" height="39.9425" fill="white" transform="translate(30.4746 79.9928)"/>
</clipPath>
</defs>
</svg>
