<svg width="712" height="146" viewBox="228.53 13.56 712.13 145.97" fill="currentColor" xmlns="http://www.w3.org/2000/svg">
<path d="M250.837 155.236C241.438 152.375 234.004 148.581 228.53 143.85L236.93 124.996C242.279 129.229 248.844 132.683 256.623 135.355C264.399 138.033 272.21 139.369 280.049 139.369C289.757 139.369 297.005 137.815 301.796 134.704C306.585 131.593 308.983 127.487 308.983 122.383C308.983 118.649 307.644 115.571 304.97 113.144C302.292 110.717 298.902 108.821 294.796 107.449C290.691 106.081 285.089 104.528 277.996 102.783C268.039 100.42 259.983 98.0556 253.822 95.6897C247.663 93.3278 242.371 89.6233 237.955 84.5839C233.537 79.5426 231.329 72.7296 231.329 64.1429C231.329 56.927 233.291 50.3626 237.21 44.4504C241.13 38.5412 247.039 33.8416 254.942 30.3555C262.843 26.8733 272.519 25.1298 283.97 25.1298C291.932 25.1298 299.771 26.1277 307.488 28.1169C315.204 30.1089 321.862 32.9699 327.463 36.7026L319.809 55.5553C314.084 52.1964 308.11 49.6471 301.89 47.9026C295.666 46.1619 289.631 45.2902 283.783 45.2902C274.199 45.2902 267.077 46.9085 262.409 50.1432C257.743 53.3807 255.409 57.6745 255.409 63.0236C255.409 66.7553 256.746 69.8075 259.424 72.1704C262.098 74.5352 265.49 76.4021 269.595 77.7699C273.704 79.1407 279.302 80.6959 286.396 82.4365C296.104 84.6761 304.065 87.0099 310.29 89.4359C316.51 91.8629 321.831 95.5674 326.25 100.543C330.665 105.521 332.876 112.242 332.876 120.703C332.876 127.921 330.916 134.455 326.995 140.302C323.075 146.154 317.131 150.82 309.17 154.303C301.203 157.785 291.498 159.53 280.049 159.53C269.97 159.53 260.231 158.097 250.837 155.236Z" fill="currentColor"/>
<path d="M414.634 152.25C411.896 154.49 408.569 156.169 404.65 157.289C400.729 158.41 396.59 158.97 392.235 158.97C381.284 158.97 372.822 156.109 366.849 150.383C360.875 144.661 357.89 136.322 357.89 125.371V77.3972H341.462V58.7298H357.89V35.957H381.221V58.7298H407.914V77.3972H381.221V124.81C381.221 129.663 382.404 133.367 384.768 135.916C387.131 138.469 390.554 139.742 395.036 139.742C400.262 139.742 404.617 138.374 408.102 135.637L414.634 152.25Z" fill="currentColor"/>
<path d="M496.585 130.41C502.184 124.687 504.984 117.157 504.984 107.823C504.984 98.4894 502.184 90.9619 496.585 85.2372C490.984 79.5134 483.892 76.6505 475.305 76.6505C466.717 76.6505 459.653 79.5134 454.117 85.2372C448.579 90.9619 445.811 98.4894 445.811 107.823C445.811 117.157 448.579 124.687 454.117 130.41C459.653 136.135 466.717 138.997 475.305 138.997C483.892 138.997 490.984 136.135 496.585 130.41ZM448.051 152.436C439.96 148.081 433.644 142.015 429.104 134.236C424.561 126.461 422.291 117.655 422.291 107.823C422.291 97.9934 424.561 89.2203 429.104 81.5026C433.644 73.7887 439.96 67.7532 448.051 63.3963C456.139 59.0414 465.224 56.8629 475.305 56.8629C485.507 56.8629 494.653 59.0414 502.743 63.3963C510.833 67.7532 517.147 73.7887 521.69 81.5026C526.233 89.2203 528.503 97.9934 528.503 107.823C528.503 117.655 526.233 126.461 521.69 134.236C517.147 142.015 510.833 148.081 502.743 152.436C494.653 156.794 485.507 158.97 475.305 158.97C465.224 158.97 456.139 156.794 448.051 152.436Z" fill="currentColor"/>
<path d="M568.821 152.436C560.607 148.081 554.197 142.015 549.594 134.236C544.989 126.46 542.688 117.655 542.688 107.823C542.688 97.9934 544.989 89.2203 549.594 81.5026C554.197 73.7877 560.576 67.7532 568.728 63.3954C576.877 59.0414 586.182 56.8629 596.634 56.8629C606.462 56.8629 615.083 58.8559 622.487 62.8362C629.89 66.8203 635.461 72.5431 639.195 80.0104L621.274 90.463C618.41 85.8604 614.834 82.4064 610.542 80.1027C606.249 77.8019 601.55 76.6505 596.448 76.6505C587.736 76.6505 580.517 79.4814 574.795 85.144C569.069 90.8076 566.21 98.3671 566.21 107.823C566.21 117.281 569.038 124.842 574.703 130.502C580.364 136.167 587.61 138.996 596.448 138.996C601.55 138.996 606.249 137.847 610.542 135.544C614.834 133.242 618.41 129.788 621.274 125.183L639.195 135.636C635.336 143.103 629.704 148.86 622.302 152.902C614.896 156.948 606.341 158.969 596.634 158.969C586.305 158.969 577.035 156.793 568.821 152.436Z" fill="currentColor"/>
<path d="M699.115 114.917L681.754 131.343V157.663H658.422V19.1567H681.754V102.784L730.101 57.9835H758.101L716.474 99.7964L762.021 157.663H733.648L699.115 114.917Z" fill="currentColor"/>
<path d="M776.208 57.9833H799.541V157.664H776.208V57.9833ZM777.328 37.5443C774.464 34.8688 773.035 31.5409 773.035 27.5568C773.035 23.5756 774.464 20.2477 777.328 17.5703C780.189 14.8957 783.737 13.557 787.968 13.557C792.198 13.557 795.744 14.8346 798.608 17.3829C801.469 19.9351 802.901 23.1407 802.901 26.9976C802.901 31.1031 801.501 34.5571 798.702 37.3569C795.901 40.1567 792.322 41.5566 787.968 41.5566C783.737 41.5566 780.189 40.2217 777.328 37.5443Z" fill="currentColor"/>
<path d="M913.964 57.9833H937.296V157.664H913.964V57.9833ZM915.086 37.5443C912.221 34.8688 910.791 31.5409 910.791 27.5568C910.791 23.5756 912.221 20.2477 915.086 17.5703C917.945 14.8957 921.492 13.557 925.725 13.557C929.954 13.557 933.5 14.8346 936.364 17.3829C939.225 19.9351 940.656 23.1407 940.656 26.9976C940.656 31.1031 939.258 34.5571 936.457 37.3569C933.657 40.1567 930.078 41.5566 925.725 41.5566C921.492 41.5566 917.945 40.2217 915.086 37.5443ZM855.911 52.7566V58.7298H883.35V77.3972H856.658V157.663H833.326V77.3972H816.898V58.7298H833.326V52.3838C833.326 41.6827 836.434 33.2505 842.658 27.0898C848.879 20.9311 857.652 17.8508 868.977 17.8508C877.937 17.8508 884.967 19.6555 890.07 23.263L883.538 40.81C879.554 38.0743 875.26 36.7036 870.657 36.7036C860.825 36.7036 855.911 42.0546 855.911 52.7566Z" fill="currentColor"/>
</svg>
